<svg width="24" height="24" xmlns="http://www.w3.org/2000/svg" xmlns:xlink="http://www.w3.org/1999/xlink" fill-rule="evenodd" clip-rule="evenodd" overflow="hidden"><path d="M7.008 22.914C2.874 21.018 0 16.842 0 12 0 5.377 5.377 1.77636e-15 12 1.77636e-15 18.623 1.77636e-15 24 5.377 24 12 24 16.439 21.585 20.318 17.998 22.394 18 16.996 18.002 9.585 17.996 8.709 17.993 8.297 17.696 8 17.323 8 16.026 8 14.108 13.17 13.44 19 14.519 18.997 15.496 19 15.496 19L15.496 23.482C14.389 23.819 13.216 24 12 24 11.148 24 10.317 23.911 9.516 23.742L9.516 17.646C9.516 17.061 9.876 16.881 10.667 16.255 11.261 15.785 11.683 15.043 11.602 14.292 11.371 12.171 10.809 8 10.809 8L10.351 8 10.351 13 9.516 13 9.35 8 8.881 8 8.68 13 7.844 13 7.7 8 7.194 8 7.008 13 6.172 13 6.172 8 5.672 8C5.672 8 5.163 12.198 4.954 14.312 4.88 15.053 5.28 15.781 5.861 16.247 6.648 16.877 7.008 17.066 7.008 17.642L7.008 22.914Z" fill="#FFFFFF"/></svg>