<svg width="64" height="64" xmlns="http://www.w3.org/2000/svg">

 <g>
  <title>background</title>
  <rect fill="none" id="canvas_background" height="402" width="582" y="-1" x="-1"/>
 </g>
 <g>
  <title>Layer 1</title>
  <path id="svg_1" fill="#ffffff" d="m62.187,47.097l-1.499,0c-1.818,0 -1.748,-1.733 -1.748,-1.733s-0.012,0.004 -0.015,0.004c-1.012,-10.176 -7.641,-18.678 -16.749,-22.381c-0.026,-0.013 -0.044,-0.026 -0.07,-0.038c-1.477,-0.646 -1.512,-2.093 -1.512,-2.093l0,-3.884c0,-2.502 -2.027,-4.533 -4.532,-4.533l-8.123,0c-2.503,0 -4.533,2.031 -4.533,4.533l0,4.461c-0.041,0.374 -0.262,0.995 -1.228,1.404c-0.062,0.027 -0.109,0.053 -0.159,0.076c-9.185,3.653 -15.893,12.168 -16.938,22.384l-0.012,-0.004c0,0 -0.15,1.804 -1.874,1.804l-1.122,0c-0.356,0.008 -1.776,0.133 -1.776,1.597l0,1.171c0.021,0.502 0.239,1.697 1.883,1.697l59.569,0c1.629,0 1.912,-1.054 1.954,-1.582l0,-1.192c0,-1.408 -1.006,-1.656 -1.516,-1.691zm-24.866,-27.445c-0.009,0.362 -0.147,1.699 -1.824,1.543c-0.092,-0.009 -0.153,-0.006 -0.215,-0.003c-1.078,-0.133 -2.166,-0.222 -3.282,-0.222c-1.269,0 -2.51,0.123 -3.734,0.296c-0.085,-0.004 -0.183,0 -0.304,0.015c-1.331,0.158 -1.564,-0.676 -1.596,-1.104l0,-2.065c0,-1.596 1.292,-2.89 2.889,-2.89l5.178,0c1.596,0 2.889,1.294 2.889,2.89l0,1.54l-0.001,0zm12.395,27.423l-2.289,0c-1.171,0 -1.469,-0.629 -1.537,-1.069c0,-0.105 -0.005,-0.249 -0.011,-0.419l0,0l0,0c-0.078,-2.298 -0.666,-10.184 -5.026,-16.422l0.021,-0.001l-0.504,-0.854c-0.054,-0.314 -0.035,-0.771 0.735,-0.13c3.779,3.256 9.365,9.457 9.686,17.922c-0.021,0.367 -0.184,0.973 -1.075,0.973z"/>
  <ellipse ry="0.06861" id="svg_2" cy="61.768233" cx="86.682295" stroke-opacity="null" stroke-width="null" stroke="null" fill="#ffffff"/>
 </g>
</svg>